<mxfile host="Electron" modified="2023-09-04T09:28:03.570Z" agent="Mozilla/5.0 (X11; Linux x86_64) AppleWebKit/537.36 (KHTML, like Gecko) draw.io/21.6.8 Chrome/114.0.5735.289 Electron/25.5.0 Safari/537.36" etag="lhy0AB-onBJaJggQBej7" version="21.6.8" type="device">
  <diagram name="Page-1" id="OXcIGhjmhNSXt_hO0aqz">
    <mxGraphModel dx="2579" dy="2167" grid="1" gridSize="10" guides="1" tooltips="1" connect="1" arrows="1" fold="1" page="1" pageScale="1" pageWidth="827" pageHeight="1169" math="0" shadow="0">
      <root>
        <mxCell id="0" />
        <mxCell id="1" parent="0" />
        <mxCell id="gJ1P-SAEKIm-q6YnZNsk-1" value="" style="rounded=1;whiteSpace=wrap;html=1;sketch=1;curveFitting=1;jiggle=2;shadow=1;" vertex="1" parent="1">
          <mxGeometry x="-220" y="145" width="120" height="205" as="geometry" />
        </mxCell>
        <mxCell id="gJ1P-SAEKIm-q6YnZNsk-2" value="" style="rounded=1;whiteSpace=wrap;html=1;sketch=1;curveFitting=1;jiggle=2;shadow=1;" vertex="1" parent="1">
          <mxGeometry x="-50" y="132.5" width="120" height="230" as="geometry" />
        </mxCell>
        <mxCell id="gJ1P-SAEKIm-q6YnZNsk-3" value="router-outlet" style="text;html=1;strokeColor=none;fillColor=none;align=center;verticalAlign=middle;whiteSpace=wrap;rounded=0;fontColor=#FF0000;sketch=1;curveFitting=1;jiggle=2;shadow=1;" vertex="1" parent="1">
          <mxGeometry x="-20" y="222.5" width="60" height="30" as="geometry" />
        </mxCell>
        <mxCell id="gJ1P-SAEKIm-q6YnZNsk-4" value="" style="rounded=1;whiteSpace=wrap;html=1;sketch=1;curveFitting=1;jiggle=2;shadow=1;" vertex="1" parent="1">
          <mxGeometry x="370" y="115" width="230" height="135" as="geometry" />
        </mxCell>
        <mxCell id="gJ1P-SAEKIm-q6YnZNsk-6" value="CovoiturageService" style="rounded=1;whiteSpace=wrap;html=1;sketch=1;curveFitting=1;jiggle=2;shadow=1;" vertex="1" parent="1">
          <mxGeometry x="418.75" y="372.5" width="130" height="60" as="geometry" />
        </mxCell>
        <mxCell id="gJ1P-SAEKIm-q6YnZNsk-7" value="" style="shape=flexArrow;endArrow=classic;html=1;rounded=0;entryX=0.474;entryY=0.985;entryDx=0;entryDy=0;exitX=0.454;exitY=0.033;exitDx=0;exitDy=0;exitPerimeter=0;entryPerimeter=0;fillColor=#ffcd28;gradientColor=#ffa500;strokeColor=#d79b00;sketch=1;curveFitting=1;jiggle=2;shadow=1;" edge="1" parent="1" source="gJ1P-SAEKIm-q6YnZNsk-6" target="gJ1P-SAEKIm-q6YnZNsk-4">
          <mxGeometry width="50" height="50" relative="1" as="geometry">
            <mxPoint x="460" y="315" as="sourcePoint" />
            <mxPoint x="510" y="265" as="targetPoint" />
          </mxGeometry>
        </mxCell>
        <mxCell id="gJ1P-SAEKIm-q6YnZNsk-11" value="1. injection du service &lt;b&gt;par constructeur&lt;/b&gt;" style="text;html=1;strokeColor=none;fillColor=none;align=center;verticalAlign=middle;whiteSpace=wrap;rounded=0;sketch=1;curveFitting=1;jiggle=2;shadow=1;" vertex="1" parent="1">
          <mxGeometry x="375" y="155" width="210" height="30" as="geometry" />
        </mxCell>
        <mxCell id="gJ1P-SAEKIm-q6YnZNsk-12" value="2. service.getAll()" style="text;html=1;strokeColor=none;fillColor=none;align=center;verticalAlign=middle;whiteSpace=wrap;rounded=0;sketch=1;curveFitting=1;jiggle=2;shadow=1;" vertex="1" parent="1">
          <mxGeometry x="370" y="180" width="210" height="30" as="geometry" />
        </mxCell>
        <mxCell id="gJ1P-SAEKIm-q6YnZNsk-13" value="&lt;b&gt;Composant liste covoiturages&lt;/b&gt;" style="text;html=1;strokeColor=none;fillColor=none;align=center;verticalAlign=middle;whiteSpace=wrap;rounded=0;sketch=1;curveFitting=1;jiggle=2;shadow=1;" vertex="1" parent="1">
          <mxGeometry x="420" y="120" width="122.5" height="30" as="geometry" />
        </mxCell>
        <mxCell id="gJ1P-SAEKIm-q6YnZNsk-14" value="3.Affichage html de la liste avec *ngFor" style="text;html=1;strokeColor=none;fillColor=none;align=center;verticalAlign=middle;whiteSpace=wrap;rounded=0;sketch=1;curveFitting=1;jiggle=2;shadow=1;" vertex="1" parent="1">
          <mxGeometry x="375" y="205" width="220" height="30" as="geometry" />
        </mxCell>
        <mxCell id="gJ1P-SAEKIm-q6YnZNsk-15" value="" style="rounded=1;whiteSpace=wrap;html=1;sketch=1;curveFitting=1;jiggle=2;shadow=1;" vertex="1" parent="1">
          <mxGeometry x="755" y="240" width="120" height="60" as="geometry" />
        </mxCell>
        <mxCell id="gJ1P-SAEKIm-q6YnZNsk-16" value="Modèle" style="text;html=1;strokeColor=none;fillColor=none;align=center;verticalAlign=middle;whiteSpace=wrap;rounded=0;sketch=1;curveFitting=1;jiggle=2;shadow=1;" vertex="1" parent="1">
          <mxGeometry x="785" y="240" width="60" height="30" as="geometry" />
        </mxCell>
        <mxCell id="gJ1P-SAEKIm-q6YnZNsk-17" value="Covoiturage" style="text;html=1;strokeColor=none;fillColor=none;align=center;verticalAlign=middle;whiteSpace=wrap;rounded=0;fontStyle=1;sketch=1;curveFitting=1;jiggle=2;shadow=1;" vertex="1" parent="1">
          <mxGeometry x="792" y="260" width="60" height="30" as="geometry" />
        </mxCell>
        <mxCell id="gJ1P-SAEKIm-q6YnZNsk-18" value="" style="rounded=1;whiteSpace=wrap;html=1;sketch=1;curveFitting=1;jiggle=2;shadow=1;" vertex="1" parent="1">
          <mxGeometry x="710" y="351" width="210" height="120" as="geometry" />
        </mxCell>
        <mxCell id="gJ1P-SAEKIm-q6YnZNsk-20" value="" style="shape=flexArrow;endArrow=classic;html=1;rounded=0;exitX=0.5;exitY=1;exitDx=0;exitDy=0;fillColor=#ffcd28;gradientColor=#ffa500;strokeColor=#d79b00;sketch=1;curveFitting=1;jiggle=2;shadow=1;" edge="1" parent="1" source="gJ1P-SAEKIm-q6YnZNsk-17" target="gJ1P-SAEKIm-q6YnZNsk-21">
          <mxGeometry width="50" height="50" relative="1" as="geometry">
            <mxPoint x="1090" y="385" as="sourcePoint" />
            <mxPoint x="1115" y="415" as="targetPoint" />
          </mxGeometry>
        </mxCell>
        <mxCell id="gJ1P-SAEKIm-q6YnZNsk-21" value="@intput() covoiturage" style="text;html=1;strokeColor=none;fillColor=none;align=center;verticalAlign=middle;whiteSpace=wrap;rounded=0;sketch=1;curveFitting=1;jiggle=2;shadow=1;" vertex="1" parent="1">
          <mxGeometry x="752" y="351" width="140" height="30" as="geometry" />
        </mxCell>
        <mxCell id="gJ1P-SAEKIm-q6YnZNsk-23" value="Router&lt;br&gt;" style="rounded=1;whiteSpace=wrap;html=1;sketch=1;curveFitting=1;jiggle=2;shadow=1;" vertex="1" parent="1">
          <mxGeometry x="755" y="542.5" width="120" height="60" as="geometry" />
        </mxCell>
        <mxCell id="gJ1P-SAEKIm-q6YnZNsk-24" value="" style="shape=flexArrow;endArrow=classic;html=1;rounded=0;entryX=0.5;entryY=1;entryDx=0;entryDy=0;exitX=0.5;exitY=0;exitDx=0;exitDy=0;fillColor=#ffcd28;gradientColor=#ffa500;strokeColor=#d79b00;sketch=1;curveFitting=1;jiggle=2;shadow=1;" edge="1" parent="1" source="gJ1P-SAEKIm-q6YnZNsk-23" target="gJ1P-SAEKIm-q6YnZNsk-18">
          <mxGeometry width="50" height="50" relative="1" as="geometry">
            <mxPoint x="1140" y="615" as="sourcePoint" />
            <mxPoint x="1190" y="565" as="targetPoint" />
          </mxGeometry>
        </mxCell>
        <mxCell id="gJ1P-SAEKIm-q6YnZNsk-29" value="&lt;br&gt;this.router.navigateByUrl(&quot;covoiturage/&amp;lt;n° covoiturage&amp;gt;" style="text;html=1;strokeColor=none;fillColor=none;align=center;verticalAlign=middle;whiteSpace=wrap;rounded=0;sketch=1;curveFitting=1;jiggle=2;shadow=1;" vertex="1" parent="1">
          <mxGeometry x="1010" y="23.439999999999998" width="310" height="30" as="geometry" />
        </mxCell>
        <mxCell id="gJ1P-SAEKIm-q6YnZNsk-30" value="index.html&lt;br&gt;" style="text;html=1;strokeColor=none;fillColor=none;align=center;verticalAlign=middle;whiteSpace=wrap;rounded=0;fontStyle=1;sketch=1;curveFitting=1;jiggle=2;shadow=1;" vertex="1" parent="1">
          <mxGeometry x="-180" y="150" width="60" height="30" as="geometry" />
        </mxCell>
        <mxCell id="gJ1P-SAEKIm-q6YnZNsk-31" value="meta-données" style="text;html=1;strokeColor=none;fillColor=none;align=center;verticalAlign=middle;whiteSpace=wrap;rounded=0;sketch=1;curveFitting=1;jiggle=2;shadow=1;" vertex="1" parent="1">
          <mxGeometry x="-200" y="185" width="100" height="30" as="geometry" />
        </mxCell>
        <mxCell id="gJ1P-SAEKIm-q6YnZNsk-32" value="app-root" style="text;html=1;strokeColor=none;fillColor=none;align=center;verticalAlign=middle;whiteSpace=wrap;rounded=0;fontColor=#FF0000;sketch=1;curveFitting=1;jiggle=2;shadow=1;" vertex="1" parent="1">
          <mxGeometry x="-190" y="246" width="60" height="30" as="geometry" />
        </mxCell>
        <mxCell id="gJ1P-SAEKIm-q6YnZNsk-33" value="éléments graphqiues fixes" style="text;html=1;strokeColor=none;fillColor=none;align=center;verticalAlign=middle;whiteSpace=wrap;rounded=0;sketch=1;curveFitting=1;jiggle=2;shadow=1;" vertex="1" parent="1">
          <mxGeometry x="-25" y="180" width="70" height="30" as="geometry" />
        </mxCell>
        <mxCell id="gJ1P-SAEKIm-q6YnZNsk-34" value="éléments graphqiues fixes" style="text;html=1;strokeColor=none;fillColor=none;align=center;verticalAlign=middle;whiteSpace=wrap;rounded=0;sketch=1;curveFitting=1;jiggle=2;shadow=1;" vertex="1" parent="1">
          <mxGeometry x="-25" y="312.5" width="70" height="30" as="geometry" />
        </mxCell>
        <mxCell id="gJ1P-SAEKIm-q6YnZNsk-35" value="" style="rounded=1;whiteSpace=wrap;html=1;sketch=1;curveFitting=1;jiggle=2;shadow=1;" vertex="1" parent="1">
          <mxGeometry x="120" y="100" width="120" height="300" as="geometry" />
        </mxCell>
        <mxCell id="gJ1P-SAEKIm-q6YnZNsk-36" value="AppRoutingModule" style="text;html=1;strokeColor=none;fillColor=none;align=center;verticalAlign=middle;whiteSpace=wrap;rounded=0;fontStyle=1;sketch=1;curveFitting=1;jiggle=2;shadow=1;" vertex="1" parent="1">
          <mxGeometry x="124" y="101" width="110" height="30" as="geometry" />
        </mxCell>
        <mxCell id="gJ1P-SAEKIm-q6YnZNsk-37" value="Aiguillage des routes" style="text;html=1;strokeColor=none;fillColor=none;align=center;verticalAlign=middle;whiteSpace=wrap;rounded=0;sketch=1;curveFitting=1;jiggle=2;shadow=1;" vertex="1" parent="1">
          <mxGeometry x="150" y="211" width="60" height="30" as="geometry" />
        </mxCell>
        <mxCell id="gJ1P-SAEKIm-q6YnZNsk-39" value="&quot;covoiturages&quot;" style="text;html=1;strokeColor=none;fillColor=none;align=center;verticalAlign=middle;whiteSpace=wrap;rounded=0;fontStyle=1;fontColor=#FF0000;sketch=1;curveFitting=1;jiggle=2;shadow=1;" vertex="1" parent="1">
          <mxGeometry x="270" y="132.5" width="60" height="30" as="geometry" />
        </mxCell>
        <mxCell id="gJ1P-SAEKIm-q6YnZNsk-40" value="App component" style="text;html=1;strokeColor=none;fillColor=none;align=center;verticalAlign=middle;whiteSpace=wrap;rounded=0;fontStyle=1;sketch=1;curveFitting=1;jiggle=2;shadow=1;" vertex="1" parent="1">
          <mxGeometry x="-37.5" y="132.5" width="95" height="30" as="geometry" />
        </mxCell>
        <mxCell id="gJ1P-SAEKIm-q6YnZNsk-41" style="edgeStyle=orthogonalEdgeStyle;rounded=0;orthogonalLoop=1;jettySize=auto;html=1;exitX=0.5;exitY=1;exitDx=0;exitDy=0;sketch=1;curveFitting=1;jiggle=2;shadow=1;" edge="1" parent="1" source="gJ1P-SAEKIm-q6YnZNsk-36" target="gJ1P-SAEKIm-q6YnZNsk-36">
          <mxGeometry relative="1" as="geometry" />
        </mxCell>
        <mxCell id="gJ1P-SAEKIm-q6YnZNsk-42" value="INJECT" style="text;html=1;strokeColor=none;fillColor=none;align=center;verticalAlign=middle;whiteSpace=wrap;rounded=0;fontStyle=1;sketch=1;curveFitting=1;jiggle=2;shadow=1;" vertex="1" parent="1">
          <mxGeometry x="490" y="276" width="60" height="30" as="geometry" />
        </mxCell>
        <mxCell id="gJ1P-SAEKIm-q6YnZNsk-46" value="composant covoiturage" style="text;html=1;strokeColor=none;fillColor=none;align=center;verticalAlign=middle;whiteSpace=wrap;rounded=0;fontStyle=1;sketch=1;curveFitting=1;jiggle=2;shadow=1;" vertex="1" parent="1">
          <mxGeometry x="745.5" y="375" width="153" height="30" as="geometry" />
        </mxCell>
        <mxCell id="gJ1P-SAEKIm-q6YnZNsk-48" value="INJECT" style="text;html=1;strokeColor=none;fillColor=none;align=center;verticalAlign=middle;whiteSpace=wrap;rounded=0;fontStyle=1;sketch=1;curveFitting=1;jiggle=2;shadow=1;" vertex="1" parent="1">
          <mxGeometry x="832" y="315" width="60" height="30" as="geometry" />
        </mxCell>
        <mxCell id="gJ1P-SAEKIm-q6YnZNsk-49" value="INJECT" style="text;html=1;strokeColor=none;fillColor=none;align=center;verticalAlign=middle;whiteSpace=wrap;rounded=0;fontStyle=1;sketch=1;curveFitting=1;jiggle=2;shadow=1;" vertex="1" parent="1">
          <mxGeometry x="832" y="500" width="60" height="30" as="geometry" />
        </mxCell>
        <mxCell id="gJ1P-SAEKIm-q6YnZNsk-50" value="Injection du modèle de données et du Router par le constructeur" style="text;html=1;strokeColor=none;fillColor=none;align=center;verticalAlign=middle;whiteSpace=wrap;rounded=0;sketch=1;curveFitting=1;jiggle=2;shadow=1;" vertex="1" parent="1">
          <mxGeometry x="726" y="410" width="178" height="30" as="geometry" />
        </mxCell>
        <mxCell id="gJ1P-SAEKIm-q6YnZNsk-52" value="" style="endArrow=classic;html=1;rounded=0;entryX=0;entryY=0.5;entryDx=0;entryDy=0;strokeColor=#FF0000;strokeWidth=4;sketch=1;curveFitting=1;jiggle=2;shadow=1;" edge="1" parent="1" target="gJ1P-SAEKIm-q6YnZNsk-2">
          <mxGeometry width="50" height="50" relative="1" as="geometry">
            <mxPoint x="-100" y="260" as="sourcePoint" />
            <mxPoint x="-70" y="230" as="targetPoint" />
          </mxGeometry>
        </mxCell>
        <mxCell id="gJ1P-SAEKIm-q6YnZNsk-53" value="1" style="ellipse;whiteSpace=wrap;html=1;aspect=fixed;fontSize=24;fontStyle=1;fontColor=#ffffff;fillColor=#e51400;strokeColor=#B20000;" vertex="1" parent="1">
          <mxGeometry x="-190" y="372.5" width="37" height="37" as="geometry" />
        </mxCell>
        <mxCell id="gJ1P-SAEKIm-q6YnZNsk-54" value="Placement du composant racine dans la single page" style="text;html=1;strokeColor=none;fillColor=none;align=center;verticalAlign=middle;whiteSpace=wrap;rounded=0;fontStyle=1;fontColor=#FF0000;sketch=1;curveFitting=1;jiggle=2;shadow=1;" vertex="1" parent="1">
          <mxGeometry x="-231.5" y="400" width="120" height="90" as="geometry" />
        </mxCell>
        <mxCell id="gJ1P-SAEKIm-q6YnZNsk-55" value="2" style="ellipse;whiteSpace=wrap;html=1;aspect=fixed;fontSize=24;fontStyle=1;fontColor=#ffffff;fillColor=#e51400;strokeColor=#B20000;" vertex="1" parent="1">
          <mxGeometry x="-8.5" y="400" width="37" height="37" as="geometry" />
        </mxCell>
        <mxCell id="gJ1P-SAEKIm-q6YnZNsk-56" value="Les éléments dynamiques de la page, à partir du composant racine, sont dispatché par le rooter" style="text;html=1;strokeColor=none;fillColor=none;align=center;verticalAlign=middle;whiteSpace=wrap;rounded=0;fontStyle=1;fontColor=#FF0000;sketch=1;curveFitting=1;jiggle=2;shadow=1;" vertex="1" parent="1">
          <mxGeometry x="-50" y="457.5" width="120" height="90" as="geometry" />
        </mxCell>
        <mxCell id="gJ1P-SAEKIm-q6YnZNsk-57" value="" style="endArrow=classic;html=1;rounded=0;entryX=0;entryY=0.5;entryDx=0;entryDy=0;strokeColor=#FF0000;strokeWidth=4;exitX=1;exitY=0.5;exitDx=0;exitDy=0;sketch=1;curveFitting=1;jiggle=2;shadow=1;" edge="1" parent="1" source="gJ1P-SAEKIm-q6YnZNsk-2" target="gJ1P-SAEKIm-q6YnZNsk-35">
          <mxGeometry width="50" height="50" relative="1" as="geometry">
            <mxPoint x="-90" y="270" as="sourcePoint" />
            <mxPoint x="-40" y="258" as="targetPoint" />
          </mxGeometry>
        </mxCell>
        <mxCell id="gJ1P-SAEKIm-q6YnZNsk-58" value="3" style="ellipse;whiteSpace=wrap;html=1;aspect=fixed;fontSize=24;fontStyle=1;fontColor=#ffffff;fillColor=#e51400;strokeColor=#B20000;" vertex="1" parent="1">
          <mxGeometry x="165.5" y="420" width="37" height="37" as="geometry" />
        </mxCell>
        <mxCell id="gJ1P-SAEKIm-q6YnZNsk-59" value="Le rooter aiguille en temps réel sur les pages demandées" style="text;html=1;strokeColor=none;fillColor=none;align=center;verticalAlign=middle;whiteSpace=wrap;rounded=0;fontStyle=1;fontColor=#FF0000;sketch=1;curveFitting=1;jiggle=2;shadow=1;" vertex="1" parent="1">
          <mxGeometry x="124" y="447.5" width="120" height="90" as="geometry" />
        </mxCell>
        <mxCell id="gJ1P-SAEKIm-q6YnZNsk-60" value="" style="endArrow=classic;html=1;rounded=0;entryX=0;entryY=0.5;entryDx=0;entryDy=0;strokeColor=#FF0000;strokeWidth=4;exitX=0.986;exitY=0.472;exitDx=0;exitDy=0;exitPerimeter=0;sketch=1;curveFitting=1;jiggle=2;shadow=1;" edge="1" parent="1" source="gJ1P-SAEKIm-q6YnZNsk-35" target="gJ1P-SAEKIm-q6YnZNsk-11">
          <mxGeometry width="50" height="50" relative="1" as="geometry">
            <mxPoint x="250" y="178" as="sourcePoint" />
            <mxPoint x="300" y="180" as="targetPoint" />
          </mxGeometry>
        </mxCell>
        <mxCell id="gJ1P-SAEKIm-q6YnZNsk-61" value="Exemple de demande de page" style="text;html=1;strokeColor=none;fillColor=none;align=center;verticalAlign=middle;whiteSpace=wrap;rounded=0;sketch=1;curveFitting=1;jiggle=2;shadow=1;" vertex="1" parent="1">
          <mxGeometry x="250" y="70" width="100" height="60" as="geometry" />
        </mxCell>
        <mxCell id="gJ1P-SAEKIm-q6YnZNsk-63" value="4" style="ellipse;whiteSpace=wrap;html=1;aspect=fixed;fontSize=24;fontStyle=1;fontColor=#ffffff;fillColor=#e51400;strokeColor=#B20000;" vertex="1" parent="1">
          <mxGeometry x="370" y="42.44" width="37" height="37" as="geometry" />
        </mxCell>
        <mxCell id="gJ1P-SAEKIm-q6YnZNsk-64" value="Un composant liste permet de regrouper tous les éléments dispos. Il fait un appel extérieur au service chargé de cette mission, en l&#39;injectant par le constructeur.&lt;br&gt;Le service est chargé de rapatrier tous les covoiturage présent" style="text;html=1;strokeColor=none;fillColor=none;align=center;verticalAlign=middle;whiteSpace=wrap;rounded=0;fontStyle=1;fontColor=#FF0000;sketch=1;curveFitting=1;jiggle=2;shadow=1;" vertex="1" parent="1">
          <mxGeometry x="405" y="12" width="255" height="89" as="geometry" />
        </mxCell>
        <mxCell id="gJ1P-SAEKIm-q6YnZNsk-65" value="" style="endArrow=classic;html=1;rounded=0;entryX=-0.011;entryY=0.411;entryDx=0;entryDy=0;strokeColor=#000000;strokeWidth=4;exitX=1;exitY=0.5;exitDx=0;exitDy=0;entryPerimeter=0;dashed=1;sketch=1;curveFitting=1;jiggle=2;shadow=1;" edge="1" parent="1" source="gJ1P-SAEKIm-q6YnZNsk-6" target="gJ1P-SAEKIm-q6YnZNsk-18">
          <mxGeometry width="50" height="50" relative="1" as="geometry">
            <mxPoint x="248" y="252" as="sourcePoint" />
            <mxPoint x="385" y="180" as="targetPoint" />
          </mxGeometry>
        </mxCell>
        <mxCell id="gJ1P-SAEKIm-q6YnZNsk-66" value="service.getAll()" style="text;html=1;strokeColor=none;fillColor=none;align=center;verticalAlign=middle;whiteSpace=wrap;rounded=0;sketch=1;curveFitting=1;jiggle=2;shadow=1;" vertex="1" parent="1">
          <mxGeometry x="580" y="312.5" width="100" height="30" as="geometry" />
        </mxCell>
        <mxCell id="gJ1P-SAEKIm-q6YnZNsk-68" value="Le modèle de données du composant covoiturage est injecté par constructeur. Le routeur est également présent. Il permettra de fancer une navigation selon les évènements advenus sur le composant, nottament à l&#39;aide de naviagteByUrl()" style="text;html=1;strokeColor=none;fillColor=none;align=center;verticalAlign=middle;whiteSpace=wrap;rounded=0;fontStyle=1;fontColor=#FF0000;sketch=1;curveFitting=1;jiggle=2;shadow=1;" vertex="1" parent="1">
          <mxGeometry x="551.75" y="457" width="179.5" height="180" as="geometry" />
        </mxCell>
        <mxCell id="gJ1P-SAEKIm-q6YnZNsk-70" value="" style="rounded=1;whiteSpace=wrap;html=1;sketch=1;curveFitting=1;jiggle=2;shadow=1;" vertex="1" parent="1">
          <mxGeometry x="660" y="-30" width="270.5" height="230" as="geometry" />
        </mxCell>
        <mxCell id="gJ1P-SAEKIm-q6YnZNsk-71" value="localhost:4200/covoiturages/" style="text;html=1;strokeColor=none;fillColor=none;align=center;verticalAlign=middle;whiteSpace=wrap;rounded=0;fontStyle=1;sketch=1;curveFitting=1;jiggle=2;shadow=1;" vertex="1" parent="1">
          <mxGeometry x="670" y="-20" width="250" height="30" as="geometry" />
        </mxCell>
        <mxCell id="gJ1P-SAEKIm-q6YnZNsk-72" value="" style="endArrow=classic;html=1;rounded=0;strokeColor=#FF0000;strokeWidth=4;exitX=1.022;exitY=0.427;exitDx=0;exitDy=0;exitPerimeter=0;entryX=0.014;entryY=0.893;entryDx=0;entryDy=0;entryPerimeter=0;sketch=1;curveFitting=1;jiggle=2;shadow=1;" edge="1" parent="1" source="gJ1P-SAEKIm-q6YnZNsk-4" target="gJ1P-SAEKIm-q6YnZNsk-70">
          <mxGeometry width="50" height="50" relative="1" as="geometry">
            <mxPoint x="248" y="252" as="sourcePoint" />
            <mxPoint x="385" y="180" as="targetPoint" />
          </mxGeometry>
        </mxCell>
        <mxCell id="gJ1P-SAEKIm-q6YnZNsk-73" value="covoiturage&amp;nbsp; &amp;nbsp;id : 1" style="text;html=1;strokeColor=none;fillColor=none;align=center;verticalAlign=middle;whiteSpace=wrap;rounded=0;sketch=1;curveFitting=1;jiggle=2;shadow=1;" vertex="1" parent="1">
          <mxGeometry x="675" y="23.44" width="110" height="30" as="geometry" />
        </mxCell>
        <mxCell id="gJ1P-SAEKIm-q6YnZNsk-74" value="Détails" style="rounded=1;html=1;shadow=1;dashed=0;whiteSpace=wrap;fontSize=10;fillColor=#E6E6E6;align=center;strokeColor=#B3B3B3;fontColor=#333333;sketch=1;curveFitting=1;jiggle=2;" vertex="1" parent="1">
          <mxGeometry x="814.5" y="30" width="105.5" height="16.88" as="geometry" />
        </mxCell>
        <mxCell id="gJ1P-SAEKIm-q6YnZNsk-76" value="covoiturage&amp;nbsp; &amp;nbsp;id : 2" style="text;html=1;strokeColor=none;fillColor=none;align=center;verticalAlign=middle;whiteSpace=wrap;rounded=0;sketch=1;curveFitting=1;jiggle=2;shadow=1;" vertex="1" parent="1">
          <mxGeometry x="675" y="56" width="110" height="30" as="geometry" />
        </mxCell>
        <mxCell id="gJ1P-SAEKIm-q6YnZNsk-77" value="Détails" style="rounded=1;html=1;shadow=1;dashed=0;whiteSpace=wrap;fontSize=10;fillColor=#E6E6E6;align=center;strokeColor=#B3B3B3;fontColor=#333333;sketch=1;curveFitting=1;jiggle=2;" vertex="1" parent="1">
          <mxGeometry x="814.5" y="62.56" width="105.5" height="16.88" as="geometry" />
        </mxCell>
        <mxCell id="gJ1P-SAEKIm-q6YnZNsk-78" value="covoiturage&amp;nbsp; &amp;nbsp;id : 3" style="text;html=1;strokeColor=none;fillColor=none;align=center;verticalAlign=middle;whiteSpace=wrap;rounded=0;sketch=1;curveFitting=1;jiggle=2;shadow=1;" vertex="1" parent="1">
          <mxGeometry x="681" y="90" width="110" height="30" as="geometry" />
        </mxCell>
        <mxCell id="gJ1P-SAEKIm-q6YnZNsk-79" value="Détails" style="rounded=1;html=1;shadow=1;dashed=0;whiteSpace=wrap;fontSize=10;fillColor=#E6E6E6;align=center;strokeColor=#B3B3B3;fontColor=#333333;sketch=1;curveFitting=1;jiggle=2;" vertex="1" parent="1">
          <mxGeometry x="819.5" y="96.56" width="105.5" height="16.88" as="geometry" />
        </mxCell>
        <mxCell id="gJ1P-SAEKIm-q6YnZNsk-80" value="" style="verticalLabelPosition=bottom;verticalAlign=top;html=1;shape=mxgraph.basic.8_point_star;fillColor=#e51400;fontColor=#ffffff;strokeColor=#B20000;sketch=1;curveFitting=1;jiggle=2;shadow=1;" vertex="1" parent="1">
          <mxGeometry x="892" y="4.879999999999999" width="50" height="42" as="geometry" />
        </mxCell>
        <mxCell id="gJ1P-SAEKIm-q6YnZNsk-81" value="" style="endArrow=classic;html=1;rounded=0;strokeColor=#FF0000;strokeWidth=4;exitX=1.022;exitY=0.427;exitDx=0;exitDy=0;exitPerimeter=0;entryX=0;entryY=0.25;entryDx=0;entryDy=0;sketch=1;curveFitting=1;jiggle=2;shadow=1;" edge="1" parent="1" target="gJ1P-SAEKIm-q6YnZNsk-25">
          <mxGeometry width="50" height="50" relative="1" as="geometry">
            <mxPoint x="955" y="43" as="sourcePoint" />
            <mxPoint x="1014" y="45" as="targetPoint" />
          </mxGeometry>
        </mxCell>
        <mxCell id="gJ1P-SAEKIm-q6YnZNsk-82" value="" style="group;sketch=1;curveFitting=1;jiggle=2;shadow=1;" vertex="1" connectable="0" parent="1">
          <mxGeometry x="1140" y="90" width="250" height="150" as="geometry" />
        </mxCell>
        <mxCell id="gJ1P-SAEKIm-q6YnZNsk-25" value="" style="rounded=1;whiteSpace=wrap;html=1;sketch=1;curveFitting=1;jiggle=2;shadow=1;" vertex="1" parent="gJ1P-SAEKIm-q6YnZNsk-82">
          <mxGeometry width="240" height="150" as="geometry" />
        </mxCell>
        <mxCell id="gJ1P-SAEKIm-q6YnZNsk-26" value="localhost:4200/covoiturages/&amp;lt;id&amp;gt;" style="text;html=1;strokeColor=none;fillColor=none;align=center;verticalAlign=middle;whiteSpace=wrap;rounded=0;fontStyle=1;sketch=1;curveFitting=1;jiggle=2;shadow=1;" vertex="1" parent="gJ1P-SAEKIm-q6YnZNsk-82">
          <mxGeometry width="250" height="23.68421052631579" as="geometry" />
        </mxCell>
        <mxCell id="gJ1P-SAEKIm-q6YnZNsk-51" value="id : 1&lt;br&gt;nombre places restantes : 2&lt;br&gt;diustance en km : 75&lt;br&gt;&lt;div style=&quot;&quot;&gt;&lt;span style=&quot;background-color: initial;&quot;&gt;...&lt;/span&gt;&lt;/div&gt;" style="text;html=1;align=left;verticalAlign=middle;resizable=0;points=[];autosize=1;strokeColor=none;fillColor=none;sketch=1;curveFitting=1;jiggle=2;shadow=1;" vertex="1" parent="gJ1P-SAEKIm-q6YnZNsk-82">
          <mxGeometry x="40" y="54.473684210526315" width="170" height="70" as="geometry" />
        </mxCell>
        <mxCell id="gJ1P-SAEKIm-q6YnZNsk-83" value="La liste de tous les covoiturages disponibles est génére&lt;br&gt;un bouton est disponible pour en afficher le détail de&lt;br&gt;chacun" style="text;html=1;strokeColor=none;fillColor=none;align=left;verticalAlign=middle;whiteSpace=wrap;rounded=0;fontStyle=1;fontColor=#FF0000;sketch=1;curveFitting=1;jiggle=2;shadow=1;" vertex="1" parent="1">
          <mxGeometry x="675" y="-120" width="248" height="80" as="geometry" />
        </mxCell>
        <mxCell id="gJ1P-SAEKIm-q6YnZNsk-84" value="4" style="ellipse;whiteSpace=wrap;html=1;aspect=fixed;fontSize=24;fontStyle=1;fontColor=#ffffff;fillColor=#e51400;strokeColor=#B20000;" vertex="1" parent="1">
          <mxGeometry x="623" y="-108.5" width="37" height="37" as="geometry" />
        </mxCell>
        <mxCell id="gJ1P-SAEKIm-q6YnZNsk-85" value="5" style="ellipse;whiteSpace=wrap;html=1;aspect=fixed;fontSize=24;fontStyle=1;fontColor=#ffffff;fillColor=#e51400;strokeColor=#B20000;" vertex="1" parent="1">
          <mxGeometry x="942" y="136.5" width="37" height="37" as="geometry" />
        </mxCell>
        <mxCell id="gJ1P-SAEKIm-q6YnZNsk-86" value="Le routeur dirige vers une&lt;br&gt;page affichant le détail&lt;br&gt;de l&#39;entité demandée" style="text;html=1;strokeColor=none;fillColor=none;align=left;verticalAlign=middle;whiteSpace=wrap;rounded=0;fontStyle=1;fontColor=#FF0000;sketch=1;curveFitting=1;jiggle=2;shadow=1;" vertex="1" parent="1">
          <mxGeometry x="994" y="125" width="136" height="80" as="geometry" />
        </mxCell>
        <mxCell id="gJ1P-SAEKIm-q6YnZNsk-88" value="" style="shape=singleArrow;whiteSpace=wrap;html=1;rotation=0;fillColor=#000099;sketch=1;curveFitting=1;jiggle=2;shadow=1;" vertex="1" parent="1">
          <mxGeometry x="931" y="380" width="259" height="43" as="geometry" />
        </mxCell>
        <mxCell id="gJ1P-SAEKIm-q6YnZNsk-89" value="&lt;b&gt;&lt;font style=&quot;font-size: 15px;&quot;&gt;Recup composant&lt;/font&gt;&lt;/b&gt;" style="text;html=1;strokeColor=none;fillColor=none;align=center;verticalAlign=middle;whiteSpace=wrap;rounded=0;sketch=1;curveFitting=1;jiggle=2;shadow=1;" vertex="1" parent="1">
          <mxGeometry x="980" y="350" width="160" height="30" as="geometry" />
        </mxCell>
        <mxCell id="gJ1P-SAEKIm-q6YnZNsk-92" value="Cheminement inter-composants" style="text;html=1;strokeColor=none;fillColor=none;align=center;verticalAlign=middle;whiteSpace=wrap;rounded=0;fontStyle=1;fontSize=27;" vertex="1" parent="1">
          <mxGeometry x="140" y="-180" width="430" height="30" as="geometry" />
        </mxCell>
        <mxCell id="gJ1P-SAEKIm-q6YnZNsk-93" value="" style="shape=singleArrow;whiteSpace=wrap;html=1;rotation=-180;fillColor=#000099;sketch=1;curveFitting=1;jiggle=2;shadow=1;" vertex="1" parent="1">
          <mxGeometry x="931" y="420" width="259" height="43" as="geometry" />
        </mxCell>
        <mxCell id="gJ1P-SAEKIm-q6YnZNsk-94" value="serveur back-end, base de doonées, fichier, json-server simulation..." style="shape=cube;whiteSpace=wrap;html=1;boundedLbl=1;backgroundOutline=1;darkOpacity=0.05;darkOpacity2=0.1;" vertex="1" parent="1">
          <mxGeometry x="1200" y="340" width="190" height="170" as="geometry" />
        </mxCell>
      </root>
    </mxGraphModel>
  </diagram>
</mxfile>
